<svg xmlns="http://www.w3.org/2000/svg" width="760" height="360" viewBox="0 0 760 360" role="img" aria-labelledby="title desc">
  <title id="title">PM 後 seasoning 多指標收斂</title><desc id="desc">OES 在第 4 片進入窗口、rate 在第 5 片、particle 在第 8 片，最晚 gate 決定 release。</desc>
  <rect width="760" height="360" fill="#f7f9fc"/><rect x="85" y="45" width="610" height="245" fill="#fff" stroke="#9aa6b2"/><rect x="85" y="145" width="610" height="55" fill="#dff4e8" opacity=".8"/><text x="600" y="167" font-family="system-ui" font-size="13" fill="#17633a">acceptance band</text>
  <path d="M100 70 C180 95 230 145 330 166 C430 176 560 174 675 173" fill="none" stroke="#2f71ba" stroke-width="4"/><text x="195" y="92" font-family="system-ui" font-size="14" fill="#2f71ba">OES (4)</text>
  <path d="M100 270 C200 245 260 205 375 180 C500 171 590 172 675 173" fill="none" stroke="#a35aad" stroke-width="4"/><text x="245" y="240" font-family="system-ui" font-size="14" fill="#874891">Rate (5)</text>
  <path d="M100 55 C250 70 390 98 555 160 C590 170 635 173 675 173" fill="none" stroke="#c34a56" stroke-width="4"/><text x="470" y="92" font-family="system-ui" font-size="14" fill="#c34a56">Particle (8)</text>
  <path d="M555 45V290" stroke="#17835b" stroke-width="3" stroke-dasharray="7 5"/><text x="565" y="278" font-family="system-ui" font-size="14" fill="#17633a">Release ≥ wafer 8</text><text x="300" y="330" font-family="system-ui" font-size="16">PM 後片序 →</text>
</svg>
